<svg id="Capa_1" enable-background="new 0 0 512 512" height="512" viewBox="0 0 512 512" width="512" xmlns="http://www.w3.org/2000/svg"><g><path d="m448.937 374.206h-13.334c-4.943-38.946-38.261-69.165-78.528-69.165h-5.633c-26.308 0-47.71-21.403-47.71-47.71v-17.11c46.656-18.831 77.677-64.146 77.929-114.957.338-68.116-54.777-124.303-122.859-125.25-33.6-.488-65.346 12.272-89.282 35.876-23.939 23.609-37.124 55.125-37.124 88.744 0 50.067 30.206 95.301 75.872 114.725v17.972c0 26.307-21.403 47.71-47.71 47.71h-5.633c-40.266 0-73.585 30.219-78.528 69.165h-13.334c-16.574 0-30.059 13.484-30.059 30.059v29.086c0 9.879 4.792 18.658 12.171 24.14v34.47c0 11.05 8.99 20.039 20.039 20.039h381.57c11.049 0 20.039-8.989 20.039-20.039v-34.47c7.38-5.482 12.171-14.262 12.171-24.14v-29.086c.001-16.575-13.483-30.059-30.057-30.059zm-294.012-49.126h5.633c37.357 0 67.749-30.392 67.749-67.749v-24.802c0-4.228-2.654-8.001-6.633-9.43-41.414-14.874-69.239-54.443-69.239-98.465 0-28.213 11.065-54.663 31.156-74.476 20.086-19.808 46.692-30.483 74.932-30.107 57.132.795 103.382 47.949 103.099 105.113-.222 44.687-28.8 84.308-71.115 98.594-4.073 1.375-6.815 5.195-6.815 9.493v24.079c0 37.357 30.392 67.749 67.749 67.749h5.633c29.196 0 53.503 21.27 58.279 49.126h-318.707c4.776-27.855 29.082-49.125 58.279-49.125zm-89.71 166.881v-28.552h145.828c5.534 0 10.02-4.486 10.02-10.02s-4.486-10.02-10.02-10.02h-147.98c-5.525 0-10.02-4.495-10.02-10.02v-29.086c0-5.524 4.495-10.02 10.02-10.02h385.873c5.525 0 10.02 4.495 10.02 10.02v29.086c0 5.524-4.495 10.02-10.02 10.02h-148.023c-5.534 0-10.02 4.486-10.02 10.02s4.486 10.02 10.02 10.02h145.872v28.552z"/><circle cx="256" cy="453.224" r="10.02"/></g></svg>