<?xml version="1.0" encoding="iso-8859-1"?>
<!-- Generator: Adobe Illustrator 19.0.0, SVG Export Plug-In . SVG Version: 6.00 Build 0)  -->
<svg version="1.1" id="Layer_1" xmlns="http://www.w3.org/2000/svg" xmlns:xlink="http://www.w3.org/1999/xlink" x="0px" y="0px"
	 viewBox="0 0 512 512" style="enable-background:new 0 0 512 512;" xml:space="preserve">
<path style="fill:#FFE69B;" d="M256,7.5v230c63.51,0,115-51.49,115-115S319.51,7.5,256,7.5z"/>
<path style="fill:#FFF3CD;" d="M256,7.5c46.94,0,85,51.49,85,115s-38.06,115-85,115c-63.51,0-115-51.49-115-115S192.49,7.5,256,7.5z
	"/>
<path style="fill:#FFB96C;" d="M351,199.5l-93.77,174.99C325.7,373.84,381,318.13,381,249.5v-50H351z"/>
<path style="fill:#FFDA69;" d="M351,199.5v50c0,68.5-41.87,124.12-93.77,124.99c-0.41,0.01-0.82,0.01-1.23,0.01
	c-69.04,0-125-55.96-125-125v-50H351z"/>
<path style="fill:#FF976F;" d="M381,504.5h-30l-30.4-40H341C363.09,464.5,381,482.41,381,504.5z"/>
<path style="fill:#FFB96C;" d="M320.6,464.5c16.79,0,30.4,17.91,30.4,40H131c0-22.09,17.91-40,40-40h21.1l63.9-20l63.9,20H320.6z"/>
<path style="fill:#FFDA69;" d="M289.9,464.5h-97.8c20.32-12.24,33.9-34.52,33.9-60l53.9-20L289.9,464.5z"/>
<path style="fill:#FFB96C;" d="M319.9,464.5h-30c-10.78-12.24-17.98-34.52-17.98-60l7.98-20l6.1,20
	C286,429.98,299.58,452.26,319.9,464.5z"/>
<path style="fill:#FF976F;" d="M286,364.5h-30v40h30c11.05,0,20-8.95,20-20S297.05,364.5,286,364.5z"/>
<path style="fill:#FFB96C;" d="M256,364.5c11.05,0,20,8.95,20,20s-8.95,20-20,20h-30c-11.05,0-20-8.95-20-20s8.95-20,20-20H256z"/>
<path d="M391,497h-3.098c-3.607-22.64-23.263-40-46.902-40h-18.954c-16.125-10.419-26.346-27.239-28.228-46.138
	c11.366-3.377,19.682-13.914,19.682-26.362c0-4.967-1.324-9.727-3.744-13.863c47.53-21.079,78.744-68.428,78.744-121.137V207h2.5
	c4.142,0,7.5-3.358,7.5-7.5s-3.358-7.5-7.5-7.5H121c-4.142,0-7.5,3.358-7.5,7.5s3.358,7.5,7.5,7.5h2.5v42.5
	c0,52.709,31.214,100.058,78.744,121.137c-2.42,4.136-3.744,8.896-3.744,13.863c0,12.448,8.316,22.985,19.682,26.362
	c-1.881,18.899-12.103,35.72-28.228,46.138H171c-23.639,0-43.295,17.36-46.902,40H121c-4.142,0-7.5,3.358-7.5,7.5s3.358,7.5,7.5,7.5
	h270c4.142,0,7.5-3.358,7.5-7.5S395.142,497,391,497z M213.5,384.5c0-4.26,2.153-8.189,5.76-10.51
	c2.415-1.554,3.731-4.352,3.388-7.203c-0.343-2.852-2.284-5.257-4.999-6.194C170.307,344.253,138.5,299.608,138.5,249.5V207h235
	v42.5c0,50.108-31.807,94.753-79.148,111.094c-2.715,0.937-4.656,3.342-4.999,6.194c-0.343,2.851,0.973,5.648,3.388,7.203
	c3.606,2.321,5.76,6.25,5.76,10.51c0,6.893-5.607,12.5-12.5,12.5h-60C219.107,397,213.5,391.393,213.5,384.5z M233.145,412h45.71
	c1.61,17.026,8.681,32.707,20.047,45h-85.805C224.464,444.707,231.535,429.026,233.145,412z M171,472h21.06
	c0.09,0,127.79,0,127.79,0c0.09,0,21.15,0,21.15,0c15.339,0,28.221,10.685,31.617,25H139.383C142.779,482.685,155.661,472,171,472z"
	/>
<path d="M256,177c4.142,0,7.5-3.358,7.5-7.5V111H286c4.142,0,7.5-3.358,7.5-7.5S290.142,96,286,96h-22.5V75.5
	c0-4.142-3.358-7.5-7.5-7.5s-7.5,3.358-7.5,7.5V96H226c-4.142,0-7.5,3.358-7.5,7.5s3.358,7.5,7.5,7.5h22.5v58.5
	C248.5,173.642,251.858,177,256,177z"/>
<path d="M154.084,176.344c3.78-1.695,5.47-6.132,3.775-9.912c-6.21-13.852-9.359-28.632-9.359-43.932
	C148.5,63.224,196.724,15,256,15s107.5,48.224,107.5,107.5c0,15.299-3.149,30.08-9.359,43.932c-1.694,3.78-0.004,8.217,3.775,9.912
	c0.997,0.447,2.038,0.658,3.064,0.658c2.865,0,5.6-1.65,6.848-4.434c7.082-15.794,10.672-32.64,10.672-50.068
	C378.5,54.953,323.547,0,256,0S133.5,54.953,133.5,122.5c0,17.428,3.59,34.274,10.672,50.068
	C145.867,176.348,150.303,178.04,154.084,176.344z"/>
<path d="M245.201,375.183h21.598c4.142,0,7.5-3.358,7.5-7.5s-3.358-7.5-7.5-7.5h-21.598c-4.142,0-7.5,3.358-7.5,7.5
	S241.059,375.183,245.201,375.183z"/>
<circle cx="351" cy="229.5" r="7.5"/>
<circle cx="321" cy="259.5" r="7.5"/>
<g>
</g>
<g>
</g>
<g>
</g>
<g>
</g>
<g>
</g>
<g>
</g>
<g>
</g>
<g>
</g>
<g>
</g>
<g>
</g>
<g>
</g>
<g>
</g>
<g>
</g>
<g>
</g>
<g>
</g>
</svg>
