<svg id="Layer_1" height="512" viewBox="0 0 55 55" width="512" xmlns="http://www.w3.org/2000/svg" data-name="Layer 1"><path d="m15.69 28.29-.12.13a4.21 4.21 0 0 1 -6.31-5.59l.13-.16z" fill="#ffdb6a"/><path d="m12.41 30.6a5 5 0 0 1 -3.71-8.27l.11-.13a.77.77 0 0 1 .52-.28.75.75 0 0 1 .56.19l6.3 5.62a.77.77 0 0 1 .06 1.06l-.12.13a4.87 4.87 0 0 1 -3.44 1.67zm-2.91-6.83a3.46 3.46 0 0 0 5.1 4.55z" fill="#556065"/><path d="m32.92 9.1c.35-.39-.73-1.94-2.41-3.46s-3.34-2.44-3.69-2l-4.28 4.79h.05l6.06 5.49z" fill="#dbd8dd"/><path d="m28.65 14.68a.7.7 0 0 1 -.5-.2l-6-5.39a.7.7 0 0 1 -.33-.35.73.73 0 0 1 .18-.81l4.2-4.76.06-.08c1-1.11 3.4.77 4.75 2s3.37 3.32 2.53 4.44l-.06.08-4.27 4.82a.75.75 0 0 1 -.52.26zm-5-6.33 5 4.51 3.55-4.07a9.56 9.56 0 0 0 -2.2-2.6 9.74 9.74 0 0 0 -2.79-1.91z" fill="#556065"/><path d="m23.66 31a24.23 24.23 0 0 1 -2.53 2.45l-17.21-15.45c.19-.27 1.59-2.12 2.16-2.76 4.95-5.48 11.49-8 16.46-6.76h.05l6.06 5.49c1.82 4.8-.04 11.6-4.99 17.03z" fill="#ededed"/><path d="m29.1 15.46-5-4.56c-5.1-1.26-11.6 1.26-16.55 6.75-.38.43-1.15 1.41-1.65 2.09l-1.98-1.74c.19-.27 1.58-2.12 2.16-2.76 4.95-5.48 11.49-8 16.46-6.76h.05l6.06 5.49a9.34 9.34 0 0 1 .45 1.49z" fill="#dbd8dd"/><g fill="#556065"><path d="m42.51 48.88a.76.76 0 0 1 -.75-.75v-22.91a.75.75 0 1 1 1.5 0v22.91a.76.76 0 0 1 -.75.75z"/><path d="m40.91 22.26a.74.74 0 0 1 -.53-.22l-10.09-10.04a.75.75 0 1 1 1.06-1.06l10.09 10.06a.75.75 0 0 1 0 1.06.74.74 0 0 1 -.53.2z"/><path d="m46.88 28.22a.77.77 0 0 1 -.53-.21l-2.87-2.86a.75.75 0 0 1 0-1.06.75.75 0 0 1 1.06 0l2.87 2.86a.75.75 0 0 1 -.53 1.28z"/></g><path d="m48.27 51.5a4.89 4.89 0 0 0 -4.64-3.37h-2.23a4.89 4.89 0 0 0 -4.65 3.37z" fill="#889da7"/><path d="m48.27 52.25h-11.52a.77.77 0 0 1 -.61-.31.75.75 0 0 1 -.1-.68 5.64 5.64 0 0 1 5.36-3.88h2.23a5.66 5.66 0 0 1 5.37 3.88.79.79 0 0 1 -.11.68.77.77 0 0 1 -.62.31zm-10.33-1.5h9.14a4.12 4.12 0 0 0 -3.45-1.87h-2.23a4.13 4.13 0 0 0 -3.46 1.87z" fill="#556065"/><path d="m51.08 52.25h-17.14a.75.75 0 0 1 0-1.5h17.14a.75.75 0 0 1 0 1.5z" fill="#556065"/><circle cx="42.51" cy="23.21" fill="#889da7" r="2.21"/><path d="m42.51 26.17a3 3 0 1 1 3-3 3 3 0 0 1 -3 3zm0-4.42a1.46 1.46 0 1 0 1.49 1.46 1.47 1.47 0 0 0 -1.49-1.46z" fill="#556065"/><path d="m21.13 34.24a.78.78 0 0 1 -.51-.2l-17.2-15.53a.75.75 0 0 1 -.12-1c.2-.29 1.62-2.17 2.23-2.84 5.05-5.6 11.79-8.35 17.19-7a.7.7 0 0 1 .34.18l6 5.46a.94.94 0 0 1 .26.34c1.93 5.24-.1 12.25-5.18 17.85a23.34 23.34 0 0 1 -2.6 2.52.74.74 0 0 1 -.41.22zm-16.2-16.39 16.21 14.64a21 21 0 0 0 1.95-1.94c4.58-5.06 6.56-11.55 4.96-16.15l-5.83-5.28c-4.76-1.12-11 1.5-15.58 6.57-.39.44-1.21 1.5-1.71 2.16z" fill="#556065"/></svg>