<svg id="Layer_1" height="512" viewBox="0 0 55 55" width="512" xmlns="http://www.w3.org/2000/svg" data-name="Layer 1"><path d="m28.65 14.68a.7.7 0 0 1 -.5-.2l-6-5.39a.72.72 0 0 1 -.34-.35.75.75 0 0 1 .19-.81l4.2-4.76.06-.08c1-1.11 3.4.77 4.75 2a13.56 13.56 0 0 1 2.08 2.28c.25.36 1 1.43.45 2.17l-.06.07-4.27 4.82a.75.75 0 0 1 -.52.26zm-5-6.33 5 4.51 3.55-4.07a9.56 9.56 0 0 0 -2.2-2.6 9.74 9.74 0 0 0 -2.79-1.91z"/><path d="m21.13 34.24a.78.78 0 0 1 -.51-.2l-17.2-15.53a.75.75 0 0 1 -.12-1c.2-.29 1.62-2.17 2.23-2.84 5.05-5.6 11.79-8.35 17.19-7a.75.75 0 0 1 .34.18l6 5.46a.94.94 0 0 1 .26.34c1.93 5.24-.1 12.25-5.18 17.85a23.34 23.34 0 0 1 -2.6 2.52.74.74 0 0 1 -.41.22zm-16.2-16.39 16.21 14.64a22.35 22.35 0 0 0 1.95-1.94c4.58-5.06 6.56-11.55 4.96-16.15l-5.83-5.28c-4.76-1.12-11 1.5-15.58 6.57-.39.44-1.21 1.5-1.71 2.16z"/><path d="m42.51 26a3 3 0 1 1 3-3 3 3 0 0 1 -3 3zm0-4.42a1.46 1.46 0 1 0 1.49 1.42 1.47 1.47 0 0 0 -1.49-1.45z"/><path d="m12.33 30a4.24 4.24 0 0 1 -2.85-1.1 4.29 4.29 0 0 1 -.34-6l.09-.11a.76.76 0 0 1 .52-.27.75.75 0 0 1 .56.19l5.26 4.7a.75.75 0 0 1 .06 1.06l-.09.11a4.26 4.26 0 0 1 -3 1.43zm-2.41-5.63a2.77 2.77 0 0 0 4.08 3.63z"/><path d="m42.51 48.88a.76.76 0 0 1 -.75-.75v-22.91a.75.75 0 1 1 1.5 0v22.91a.76.76 0 0 1 -.75.75z"/><path d="m40.91 22.26a.73.73 0 0 1 -.53-.22l-10.09-10.04a.75.75 0 1 1 1.06-1.06l10.09 10.06a.75.75 0 0 1 0 1.06.74.74 0 0 1 -.53.2z"/><path d="m46.88 28.22a.77.77 0 0 1 -.53-.21l-2.87-2.86a.75.75 0 0 1 0-1.06.75.75 0 0 1 1.06 0l2.87 2.86a.74.74 0 0 1 0 1.06.71.71 0 0 1 -.53.21z"/><path d="m48.27 52.25h-11.52a.77.77 0 0 1 -.61-.31.75.75 0 0 1 -.1-.68 5.64 5.64 0 0 1 5.35-3.88h2.23a5.64 5.64 0 0 1 5.38 3.88.75.75 0 0 1 -.1.68.77.77 0 0 1 -.63.31zm-10.33-1.5h9.14a4.13 4.13 0 0 0 -3.46-1.87h-2.23a4.12 4.12 0 0 0 -3.45 1.87z"/><path d="m51.08 52.25h-17.14a.75.75 0 0 1 0-1.5h17.14a.75.75 0 0 1 0 1.5z"/></svg>